<svg xmlns="http://www.w3.org/2000/svg" xmlns:xlink="http://www.w3.org/1999/xlink" width="500" zoomAndPan="magnify" viewBox="0 0 375 374.999991" height="500" preserveAspectRatio="xMidYMid meet" version="1.2"><defs><clipPath id="08cf1f47cd"><path d="M 91.136719 87.246094 L 215 87.246094 L 215 211 L 91.136719 211 Z M 91.136719 87.246094 "/></clipPath><clipPath id="ecf42432e2"><path d="M 148 144 L 271.886719 144 L 271.886719 267.996094 L 148 267.996094 Z M 148 144 "/></clipPath><clipPath id="4dd89d47e7"><path d="M 91.136719 87.246094 L 271.886719 87.246094 L 271.886719 267.996094 L 91.136719 267.996094 Z M 91.136719 87.246094 "/></clipPath></defs><g id="ce99608600"><path style=" stroke:none;fill-rule:nonzero;fill:#dff0fe;fill-opacity:1;" d="M 93.515625 89.625 L 212.429688 89.625 L 212.429688 208.539062 L 93.515625 208.539062 Z M 93.515625 89.625 "/><g clip-rule="nonzero" clip-path="url(#08cf1f47cd)"><path style=" stroke:none;fill-rule:nonzero;fill:#4788c7;fill-opacity:1;" d="M 210.050781 92.003906 L 210.050781 206.160156 L 95.894531 206.160156 L 95.894531 92.003906 L 210.050781 92.003906 M 214.808594 87.246094 L 91.136719 87.246094 L 91.136719 210.917969 L 214.808594 210.917969 Z M 214.808594 87.246094 "/></g><path style=" stroke:none;fill-rule:nonzero;fill:#98ccfd;fill-opacity:1;" d="M 150.59375 265.617188 L 150.59375 207.144531 L 211.035156 146.703125 L 269.507812 146.703125 L 269.507812 265.617188 Z M 150.59375 265.617188 "/><g clip-rule="nonzero" clip-path="url(#ecf42432e2)"><path style=" stroke:none;fill-rule:nonzero;fill:#4788c7;fill-opacity:1;" d="M 267.132812 149.082031 L 267.132812 263.238281 L 152.972656 263.238281 L 152.972656 208.128906 L 212.023438 149.082031 L 267.132812 149.082031 M 271.886719 144.324219 L 210.050781 144.324219 L 148.21875 206.160156 L 148.21875 267.996094 L 271.886719 267.996094 Z M 271.886719 144.324219 "/></g><path style=" stroke:none;fill-rule:nonzero;fill:#ffffff;fill-opacity:1;" d="M 194.257812 215.671875 L 229.929688 215.671875 L 229.929688 229.945312 L 194.257812 229.945312 Z M 194.257812 215.671875 "/><path style=" stroke:none;fill-rule:nonzero;fill:#ffffff;fill-opacity:1;" d="M 221.386719 177.621094 L 203.359375 177.621094 L 178.796875 244.214844 L 194.613281 244.214844 L 211.785156 190.324219 L 212.394531 190.324219 L 229.574219 244.214844 L 245.390625 244.214844 Z M 221.386719 177.621094 "/><g clip-rule="nonzero" clip-path="url(#4dd89d47e7)"><path style="fill:none;stroke-width:2;stroke-linecap:butt;stroke-linejoin:miter;stroke:#4788c7;stroke-opacity:1;stroke-miterlimit:10;" d="M 6.999643 9.999886 L 20.99999 9.999886 M 13.999816 5.999669 L 13.999816 9.999886 M 19.000292 9.999886 C 19.000292 9.999886 16.62365 20.000017 6.999643 20.000017 M 9.000161 12.999843 C 9.000161 12.999843 12.450974 18.000319 18.000033 18.000319 " transform="matrix(4.756578,0,0,4.756578,86.381432,82.489447)"/></g></g></svg>