<svg xmlns="http://www.w3.org/2000/svg" xmlns:xlink="http://www.w3.org/1999/xlink" width="328" zoomAndPan="magnify" viewBox="0 0 246 245.999995" height="328" preserveAspectRatio="xMidYMid meet" version="1.2"><defs><clipPath id="0a2af45b8c"><path d="M 0 0 L 245.589844 0 L 245.589844 245.589844 L 0 245.589844 Z M 0 0 "/></clipPath><clipPath id="8af1ce0f31"><path d="M 38.375 0 L 207.21875 0 C 228.410156 0 245.589844 17.179688 245.589844 38.375 L 245.589844 207.21875 C 245.589844 228.410156 228.410156 245.589844 207.21875 245.589844 L 38.375 245.589844 C 17.179688 245.589844 0 228.410156 0 207.21875 L 0 38.375 C 0 17.179688 17.179688 0 38.375 0 Z M 38.375 0 "/></clipPath><clipPath id="5bfd923ce7"><path d="M 32.460938 32.042969 L 157 32.042969 L 157 156 L 32.460938 156 Z M 32.460938 32.042969 "/></clipPath><clipPath id="bc1918166b"><path d="M 89 89 L 213.210938 89 L 213.210938 212.792969 L 89 212.792969 Z M 89 89 "/></clipPath><clipPath id="6e479e62c1"><path d="M 32.460938 32.042969 L 213.210938 32.042969 L 213.210938 212.792969 L 32.460938 212.792969 Z M 32.460938 32.042969 "/></clipPath></defs><g id="f6a4e9245d"><g clip-rule="nonzero" clip-path="url(#0a2af45b8c)"><g clip-rule="nonzero" clip-path="url(#8af1ce0f31)"><path style=" stroke:none;fill-rule:nonzero;fill:#121a26;fill-opacity:1;" d="M 0 0 L 245.589844 0 L 245.589844 245.589844 L 0 245.589844 Z M 0 0 "/></g></g><path style=" stroke:none;fill-rule:nonzero;fill:#dff0fe;fill-opacity:1;" d="M 34.839844 34.421875 L 153.753906 34.421875 L 153.753906 153.335938 L 34.839844 153.335938 Z M 34.839844 34.421875 "/><g clip-rule="nonzero" clip-path="url(#5bfd923ce7)"><path style=" stroke:none;fill-rule:nonzero;fill:#4788c7;fill-opacity:1;" d="M 151.378906 36.800781 L 151.378906 150.957031 L 37.21875 150.957031 L 37.21875 36.800781 L 151.378906 36.800781 M 156.132812 32.042969 L 32.460938 32.042969 L 32.460938 155.714844 L 156.132812 155.714844 Z M 156.132812 32.042969 "/></g><path style=" stroke:none;fill-rule:nonzero;fill:#98ccfd;fill-opacity:1;" d="M 91.917969 210.414062 L 91.917969 151.941406 L 152.363281 91.5 L 210.835938 91.5 L 210.835938 210.414062 Z M 91.917969 210.414062 "/><g clip-rule="nonzero" clip-path="url(#bc1918166b)"><path style=" stroke:none;fill-rule:nonzero;fill:#4788c7;fill-opacity:1;" d="M 208.457031 93.878906 L 208.457031 208.039062 L 94.296875 208.039062 L 94.296875 152.925781 L 153.347656 93.878906 L 208.457031 93.878906 M 213.210938 89.121094 L 151.378906 89.121094 L 89.542969 150.957031 L 89.542969 212.792969 L 213.210938 212.792969 Z M 213.210938 89.121094 "/></g><path style=" stroke:none;fill-rule:nonzero;fill:#ffffff;fill-opacity:1;" d="M 135.582031 160.472656 L 171.253906 160.472656 L 171.253906 174.742188 L 135.582031 174.742188 Z M 135.582031 160.472656 "/><path style=" stroke:none;fill-rule:nonzero;fill:#ffffff;fill-opacity:1;" d="M 162.710938 122.417969 L 144.683594 122.417969 L 120.121094 189.011719 L 135.9375 189.011719 L 153.109375 135.125 L 153.71875 135.125 L 170.898438 189.011719 L 186.714844 189.011719 Z M 162.710938 122.417969 "/><g clip-rule="nonzero" clip-path="url(#6e479e62c1)"><path style="fill:none;stroke-width:2;stroke-linecap:butt;stroke-linejoin:miter;stroke:#4788c7;stroke-opacity:1;stroke-miterlimit:10;" d="M 7.000399 9.999653 L 20.999925 9.999653 M 13.999751 6.000257 L 13.999751 9.999653 M 19.000227 9.999653 C 19.000227 9.999653 16.624406 19.999784 7.000399 19.999784 M 9.000096 12.99961 C 9.000096 12.99961 12.450909 18.000086 17.999968 18.000086 " transform="matrix(4.756578,0,0,4.756578,27.70596,27.28743)"/></g></g></svg>